<!DOCTYPE svg PUBLIC "-//W3C//DTD SVG 1.1//EN" "http://www.w3.org/Graphics/SVG/1.1/DTD/svg11.dtd">
<!-- Uploaded to: SVG Repo, www.svgrepo.com, Transformed by: SVG Repo Mixer Tools -->
<svg width="113px" height="113px" viewBox="0 0 48.00 48.00" xmlns="http://www.w3.org/2000/svg" fill="#2408af" stroke="#2408af" transform="rotate(45)" stroke-width="1.488">
<g id="SVGRepo_bgCarrier" stroke-width="0"/>
<g id="SVGRepo_tracerCarrier" stroke-linecap="round" stroke-linejoin="round"/>
<g id="SVGRepo_iconCarrier">
<defs>
<style>.a{fill:none;stroke:#000000;stroke-linecap:round;stroke-linejoin:round;}</style>
</defs>
<path class="a" d="M33.66,29.08a10.86,10.86,0,0,1-19.34,0"/>
<path class="a" d="M34.65,21.71c3.87,1.61,3,3.82-2,5.14a39,39,0,0,1-17.47,0c-5-1.32-5.78-3.54-1.89-5.15"/>
<path class="a" d="M33.61,18.85c7.7,1.32,11.5,4,9.25,6.61s-10,4.38-18.83,4.38S7.43,28.05,5.16,25.48s1.49-5.3,9.18-6.62"/>
<path class="a" d="M13.31,26.21a11,11,0,0,1,4.6-11.34,10.82,10.82,0,0,1,12.14,0A11,11,0,0,1,34.67,26.2"/>
</g>
</svg>